<?xml version="1.0" encoding="utf-8"?>
<!-- Generator: Adobe Illustrator 27.4.1, SVG Export Plug-In . SVG Version: 6.00 Build 0)  -->
<svg version="1.1" id="Layer_1" xmlns="http://www.w3.org/2000/svg" xmlns:xlink="http://www.w3.org/1999/xlink" x="0px" y="0px"
	 viewBox="0 0 20 20" style="enable-background:new 0 0 20 20;" xml:space="preserve">
<path d="M4,12h12v-1.5H4V12z M4,8.8h12V7.2H4V8.8z M4,5.5h12V4H4V5.5z M20,20l-4-4H1.5c-0.4,0-0.7-0.2-1-0.5c-0.3-0.3-0.5-0.7-0.5-1
	v-13c0-0.4,0.2-0.7,0.5-1S1.1,0,1.5,0h17c0.4,0,0.8,0.2,1,0.5c0.3,0.3,0.5,0.7,0.5,1V20z M1.5,1.5v13h15.1l1.9,1.9V1.5H1.5z
	 M1.5,1.5v14.9V1.5z"/>
</svg>
